<svg width="300" height="180" viewBox="0 0 300 180" xmlns="http://www.w3.org/2000/svg">
  <defs>
    <linearGradient id="thankYouGradient" x1="0%" y1="0%" x2="100%" y2="100%">
      <stop offset="0%" style="stop-color:#673ab7;stop-opacity:1" />
      <stop offset="50%" style="stop-color:#9c27b0;stop-opacity:1" />
      <stop offset="100%" style="stop-color:#e1bee7;stop-opacity:1" />
    </linearGradient>
    <linearGradient id="cardGradient4" x1="0%" y1="0%" x2="100%" y2="100%">
      <stop offset="0%" style="stop-color:#ffffff;stop-opacity:0.95" />
      <stop offset="100%" style="stop-color:#f8f9fa;stop-opacity:0.9" />
    </linearGradient>
  </defs>
  
  <!-- Background -->
  <rect width="300" height="180" fill="url(#thankYouGradient)" rx="15" ry="15"/>
  
  <!-- Card background -->
  <rect x="20" y="20" width="260" height="140" fill="url(#cardGradient4)" rx="10" ry="10"/>
  
  <!-- Thank you hands/folded hands -->
  <ellipse cx="100" cy="60" rx="15" ry="25" fill="#ffcdd2" transform="rotate(-15 100 60)"/>
  <ellipse cx="120" cy="60" rx="15" ry="25" fill="#ffcdd2" transform="rotate(15 120 60)"/>
  <ellipse cx="180" cy="60" rx="15" ry="25" fill="#ffcdd2" transform="rotate(-15 180 60)"/>
  <ellipse cx="200" cy="60" rx="15" ry="25" fill="#ffcdd2" transform="rotate(15 200 60)"/>
  
  <!-- Heart in center -->
  <path d="M150 50 Q150 40 160 40 Q170 40 170 50 Q170 60 160 70 Q150 60 150 50" fill="#673ab7"/>
  
  <!-- Restaurant name -->
  <text x="150" y="100" text-anchor="middle" font-family="Arial, sans-serif" font-size="18" font-weight="bold" fill="#673ab7">1947 Truly Indian</text>
  
  <!-- Gift card text -->
  <text x="150" y="120" text-anchor="middle" font-family="Arial, sans-serif" font-size="14" fill="#333">Gift Card</text>
  
  <!-- Thank you text -->
  <text x="150" y="140" text-anchor="middle" font-family="Arial, sans-serif" font-size="12" fill="#666">Thank You!</text>
  
  <!-- Decorative elements -->
  <circle cx="50" cy="30" r="3" fill="#ffffff" opacity="0.7"/>
  <circle cx="250" cy="40" r="4" fill="#ffffff" opacity="0.7"/>
  <circle cx="40" cy="150" r="2" fill="#ffffff" opacity="0.7"/>
  <circle cx="260" cy="160" r="3" fill="#ffffff" opacity="0.7"/>
</svg>
