<svg width="300" height="180" viewBox="0 0 300 180" xmlns="http://www.w3.org/2000/svg">
  <defs>
    <linearGradient id="holidayGradient" x1="0%" y1="0%" x2="100%" y2="100%">
      <stop offset="0%" style="stop-color:#2e7d32;stop-opacity:1" />
      <stop offset="50%" style="stop-color:#4caf50;stop-opacity:1" />
      <stop offset="100%" style="stop-color:#81c784;stop-opacity:1" />
    </linearGradient>
    <linearGradient id="cardGradient3" x1="0%" y1="0%" x2="100%" y2="100%">
      <stop offset="0%" style="stop-color:#ffffff;stop-opacity:0.95" />
      <stop offset="100%" style="stop-color:#f8f9fa;stop-opacity:0.9" />
    </linearGradient>
  </defs>
  
  <!-- Background -->
  <rect width="300" height="180" fill="url(#holidayGradient)" rx="15" ry="15"/>
  
  <!-- Card background -->
  <rect x="20" y="20" width="260" height="140" fill="url(#cardGradient3)" rx="10" ry="10"/>
  
  <!-- Christmas tree decorations -->
  <polygon points="150,40 130,70 170,70" fill="#2e7d32"/>
  <polygon points="150,50 120,90 180,90" fill="#4caf50"/>
  <polygon points="150,60 110,110 190,110" fill="#2e7d32"/>
  <rect x="145" y="110" width="10" height="15" fill="#8d6e63"/>
  
  <!-- Star on top -->
  <polygon points="150,30 152,38 160,38 154,42 156,50 150,46 144,50 146,42 140,38 148,38" fill="#ffd700"/>
  
  <!-- Ornaments -->
  <circle cx="140" cy="60" r="3" fill="#ff6b35"/>
  <circle cx="160" cy="70" r="3" fill="#2196f3"/>
  <circle cx="135" cy="80" r="3" fill="#e91e63"/>
  <circle cx="165" cy="90" r="3" fill="#ff9800"/>
  
  <!-- Restaurant name -->
  <text x="150" y="130" text-anchor="middle" font-family="Arial, sans-serif" font-size="18" font-weight="bold" fill="#2e7d32">1947 Truly Indian</text>
  
  <!-- Gift card text -->
  <text x="150" y="150" text-anchor="middle" font-family="Arial, sans-serif" font-size="14" fill="#333">Gift Card</text>
  
  <!-- Holiday text -->
  <text x="150" y="165" text-anchor="middle" font-family="Arial, sans-serif" font-size="12" fill="#666">Happy Holidays!</text>
  
  <!-- Decorative elements -->
  <circle cx="50" cy="30" r="3" fill="#ffffff" opacity="0.7"/>
  <circle cx="250" cy="40" r="4" fill="#ffffff" opacity="0.7"/>
  <circle cx="40" cy="150" r="2" fill="#ffffff" opacity="0.7"/>
  <circle cx="260" cy="160" r="3" fill="#ffffff" opacity="0.7"/>
</svg>
