<svg width="300" height="180" viewBox="0 0 300 180" xmlns="http://www.w3.org/2000/svg">
  <defs>
    <linearGradient id="congratulationsGradient" x1="0%" y1="0%" x2="100%" y2="100%">
      <stop offset="0%" style="stop-color:#ff9800;stop-opacity:1" />
      <stop offset="50%" style="stop-color:#ffc107;stop-opacity:1" />
      <stop offset="100%" style="stop-color:#ffeb3b;stop-opacity:1" />
    </linearGradient>
    <linearGradient id="cardGradient5" x1="0%" y1="0%" x2="100%" y2="100%">
      <stop offset="0%" style="stop-color:#ffffff;stop-opacity:0.95" />
      <stop offset="100%" style="stop-color:#f8f9fa;stop-opacity:0.9" />
    </linearGradient>
  </defs>
  
  <!-- Background -->
  <rect width="300" height="180" fill="url(#congratulationsGradient)" rx="15" ry="15"/>
  
  <!-- Card background -->
  <rect x="20" y="20" width="260" height="140" fill="url(#cardGradient5)" rx="10" ry="10"/>
  
  <!-- Celebration elements -->
  <circle cx="80" cy="50" r="8" fill="#ff6b35"/>
  <circle cx="100" cy="40" r="6" fill="#e91e63"/>
  <circle cx="120" cy="55" r="7" fill="#2196f3"/>
  <circle cx="140" cy="45" r="5" fill="#4caf50"/>
  <circle cx="160" cy="50" r="6" fill="#9c27b0"/>
  <circle cx="180" cy="40" r="7" fill="#ff9800"/>
  <circle cx="200" cy="55" r="5" fill="#f44336"/>
  <circle cx="220" cy="45" r="6" fill="#00bcd4"/>
  
  <!-- Trophy/cup -->
  <rect x="140" y="70" width="20" height="25" fill="#ffd700" rx="2"/>
  <rect x="135" y="95" width="30" height="8" fill="#ffd700" rx="4"/>
  <circle cx="150" cy="75" r="6" fill="#ff6b35"/>
  
  <!-- Restaurant name -->
  <text x="150" y="120" text-anchor="middle" font-family="Arial, sans-serif" font-size="18" font-weight="bold" fill="#ff9800">1947 Truly Indian</text>
  
  <!-- Gift card text -->
  <text x="150" y="140" text-anchor="middle" font-family="Arial, sans-serif" font-size="14" fill="#333">Gift Card</text>
  
  <!-- Congratulations text -->
  <text x="150" y="155" text-anchor="middle" font-family="Arial, sans-serif" font-size="12" fill="#666">Congratulations!</text>
  
  <!-- Decorative elements -->
  <circle cx="50" cy="30" r="3" fill="#ffffff" opacity="0.7"/>
  <circle cx="250" cy="40" r="4" fill="#ffffff" opacity="0.7"/>
  <circle cx="40" cy="150" r="2" fill="#ffffff" opacity="0.7"/>
  <circle cx="260" cy="160" r="3" fill="#ffffff" opacity="0.7"/>
</svg>
