<svg width="300" height="180" viewBox="0 0 300 180" xmlns="http://www.w3.org/2000/svg">
  <defs>
    <linearGradient id="generalGradient" x1="0%" y1="0%" x2="100%" y2="100%">
      <stop offset="0%" style="stop-color:#1976d2;stop-opacity:1" />
      <stop offset="50%" style="stop-color:#42a5f5;stop-opacity:1" />
      <stop offset="100%" style="stop-color:#90caf9;stop-opacity:1" />
    </linearGradient>
    <linearGradient id="cardGradient6" x1="0%" y1="0%" x2="100%" y2="100%">
      <stop offset="0%" style="stop-color:#ffffff;stop-opacity:0.95" />
      <stop offset="100%" style="stop-color:#f8f9fa;stop-opacity:0.9" />
    </linearGradient>
  </defs>
  
  <!-- Background -->
  <rect width="300" height="180" fill="url(#generalGradient)" rx="15" ry="15"/>
  
  <!-- Card background -->
  <rect x="20" y="20" width="260" height="140" fill="url(#cardGradient6)" rx="10" ry="10"/>
  
  <!-- Gift box -->
  <rect x="120" y="50" width="60" height="40" fill="#1976d2" rx="5"/>
  <rect x="130" y="60" width="40" height="20" fill="#42a5f5" rx="3"/>
  <rect x="140" y="70" width="20" height="10" fill="#90caf9" rx="2"/>
  
  <!-- Gift bow -->
  <rect x="145" y="45" width="10" height="15" fill="#e91e63"/>
  <rect x="140" y="50" width="20" height="5" fill="#e91e63"/>
  
  <!-- Decorative dots -->
  <circle cx="100" cy="60" r="4" fill="#1976d2" opacity="0.6"/>
  <circle cx="200" cy="55" r="3" fill="#42a5f5" opacity="0.6"/>
  <circle cx="90" cy="80" r="3" fill="#1976d2" opacity="0.6"/>
  <circle cx="210" cy="85" r="4" fill="#42a5f5" opacity="0.6"/>
  <circle cx="85" cy="100" r="2" fill="#1976d2" opacity="0.6"/>
  <circle cx="215" cy="105" r="3" fill="#42a5f5" opacity="0.6"/>
  
  <!-- Restaurant name -->
  <text x="150" y="120" text-anchor="middle" font-family="Arial, sans-serif" font-size="18" font-weight="bold" fill="#1976d2">1947 Truly Indian</text>
  
  <!-- Gift card text -->
  <text x="150" y="140" text-anchor="middle" font-family="Arial, sans-serif" font-size="14" fill="#333">Gift Card</text>
  
  <!-- General text -->
  <text x="150" y="155" text-anchor="middle" font-family="Arial, sans-serif" font-size="12" fill="#666">Perfect for Any Occasion</text>
  
  <!-- Decorative elements -->
  <circle cx="50" cy="30" r="3" fill="#ffffff" opacity="0.7"/>
  <circle cx="250" cy="40" r="4" fill="#ffffff" opacity="0.7"/>
  <circle cx="40" cy="150" r="2" fill="#ffffff" opacity="0.7"/>
  <circle cx="260" cy="160" r="3" fill="#ffffff" opacity="0.7"/>
</svg>
