<svg width="300" height="180" viewBox="0 0 300 180" xmlns="http://www.w3.org/2000/svg">
  <defs>
    <linearGradient id="anniversaryGradient" x1="0%" y1="0%" x2="100%" y2="100%">
      <stop offset="0%" style="stop-color:#e91e63;stop-opacity:1" />
      <stop offset="50%" style="stop-color:#f06292;stop-opacity:1" />
      <stop offset="100%" style="stop-color:#f8bbd9;stop-opacity:1" />
    </linearGradient>
    <linearGradient id="cardGradient2" x1="0%" y1="0%" x2="100%" y2="100%">
      <stop offset="0%" style="stop-color:#ffffff;stop-opacity:0.95" />
      <stop offset="100%" style="stop-color:#f8f9fa;stop-opacity:0.9" />
    </linearGradient>
  </defs>
  
  <!-- Background -->
  <rect width="300" height="180" fill="url(#anniversaryGradient)" rx="15" ry="15"/>
  
  <!-- Card background -->
  <rect x="20" y="20" width="260" height="140" fill="url(#cardGradient2)" rx="10" ry="10"/>
  
  <!-- Heart decorations -->
  <path d="M70 50 Q70 40 80 40 Q90 40 90 50 Q90 60 80 70 Q70 60 70 50" fill="#e91e63"/>
  <path d="M110 45 Q110 35 120 35 Q130 35 130 45 Q130 55 120 65 Q110 55 110 45" fill="#f06292"/>
  <path d="M150 55 Q150 45 160 45 Q170 45 170 55 Q170 65 160 75 Q150 65 150 55" fill="#e91e63"/>
  <path d="M190 50 Q190 40 200 40 Q210 40 210 50 Q210 60 200 70 Q190 60 190 50" fill="#f06292"/>
  
  <!-- Restaurant name -->
  <text x="150" y="100" text-anchor="middle" font-family="Arial, sans-serif" font-size="18" font-weight="bold" fill="#e91e63">1947 Truly Indian</text>
  
  <!-- Gift card text -->
  <text x="150" y="120" text-anchor="middle" font-family="Arial, sans-serif" font-size="14" fill="#333">Gift Card</text>
  
  <!-- Anniversary text -->
  <text x="150" y="140" text-anchor="middle" font-family="Arial, sans-serif" font-size="12" fill="#666">Happy Anniversary!</text>
  
  <!-- Decorative elements -->
  <circle cx="50" cy="30" r="3" fill="#ffffff" opacity="0.7"/>
  <circle cx="250" cy="40" r="4" fill="#ffffff" opacity="0.7"/>
  <circle cx="40" cy="150" r="2" fill="#ffffff" opacity="0.7"/>
  <circle cx="260" cy="160" r="3" fill="#ffffff" opacity="0.7"/>
</svg>
